Coordinates
version=1
nRows=18
nColumns=63
inDegrees=yes

Units are S.I. units (second, meters, Newtons, ...)
If the header above contains a line with 'inDegrees', this indicates whether rotational values are in degrees (yes) or radians (no).

endheader
time	pelvis_tilt	pelvis_list	pelvis_rotation	pelvis_tx	pelvis_ty	pelvis_tz	hip_flexion_r	hip_adduction_r	hip_rotation_r	knee_angle_r	knee_angle_r_beta	ankle_angle_r	subtalar_angle_r	mtp_angle_r	hip_flexion_l	hip_adduction_l	hip_rotation_l	knee_angle_l	knee_angle_l_beta	ankle_angle_l	subtalar_angle_l	mtp_angle_l	L5_S1_Flex_Ext	L5_S1_Lat_Bending	L5_S1_axial_rotation	L4_L5_Flex_Ext	L4_L5_Lat_Bending	L4_L5_axial_rotation	L3_L4_Flex_Ext	L3_L4_Lat_Bending	L3_L4_axial_rotation	L2_L3_Flex_Ext	L2_L3_Lat_Bending	L2_L3_axial_rotation	L1_L2_Flex_Ext	L1_L2_Lat_Bending	L1_L2_axial_rotation	L1_T12_Flex_Ext	L1_T12_Lat_Bending	L1_T12_axial_rotation	Abs_r3	Abs_r2	Abs_r1	Abs_t1	Abs_t2	neck_flexion	neck_bending	neck_rotation	arm_flex_r	arm_add_r	arm_rot_r	elbow_flex_r	pro_sup_r	wrist_flex_r	wrist_dev_r	arm_flex_l	arm_add_l	arm_rot_l	elbow_flex_l	pro_sup_l	wrist_flex_l	wrist_dev_l
2.116667	1.865347	-4.615509	91.723146	0.286797	0.762682	0.664311	6.796155	1.907974	1.041416	9.789983	0.170867	32.231658	5.947387	0.000000	9.041516	-3.613129	3.269494	10.645420	0.185798	34.521278	6.842089	0.000000	-0.047466	0.871705	0.369861	-0.088149	1.159368	0.392977	-0.077982	2.119465	0.392977	-0.054249	2.119465	0.323628	-0.044077	1.777582	0.300512	-0.027122	1.350272	0.277396	-0.339043	9.860906	2.057056	0.000000	0.000000	9.721535	3.370301	-0.435297	18.404802	-32.913152	66.056122	56.885546	85.898525	2.525989	2.349910	20.791005	-19.083438	76.689857	43.437029	58.604209	0.010165	-13.283253
2.133333	2.180755	-4.450946	92.221896	0.286323	0.762884	0.663767	6.070767	2.381157	2.777181	8.552718	0.149273	31.181284	3.205364	0.000000	8.956000	-3.902413	3.875157	10.835143	0.189109	34.532951	6.862818	0.000000	-0.061609	0.909866	0.285933	-0.114414	1.210121	0.303804	-0.101218	2.212247	0.303804	-0.070413	2.212247	0.250191	-0.057210	1.855398	0.232320	-0.035203	1.409382	0.214450	-0.440068	10.292582	1.590272	0.000000	0.000000	9.735995	3.167657	-0.575679	18.300971	-33.009064	65.777473	56.944099	85.348398	3.244750	2.556197	20.547499	-18.883430	76.182519	43.347711	59.344350	-0.261660	-13.323281
2.150000	2.482566	-4.287803	92.746074	0.285829	0.763031	0.663266	5.381571	2.809690	4.284252	7.392991	0.129032	30.214224	0.746827	0.000000	8.898260	-4.185833	4.347096	11.058941	0.193015	34.581131	7.071745	0.000000	-0.075194	0.945404	0.195703	-0.139643	1.257387	0.207935	-0.123537	2.298655	0.207935	-0.085939	2.298655	0.171240	-0.069825	1.927867	0.159009	-0.042966	1.464430	0.146778	-0.537105	10.694596	1.088444	0.000000	0.000000	9.748652	2.916876	-0.695576	18.194976	-33.084118	65.484402	57.006217	85.156078	3.825381	2.734934	20.244765	-18.684666	75.504477	43.289859	60.403740	-0.612319	-13.341767
2.166667	2.767781	-4.123994	93.312352	0.285329	0.763145	0.662737	4.690726	3.216798	5.859594	6.246199	0.109017	29.230662	-1.851862	0.000000	8.849892	-4.452587	4.783257	11.280983	0.196890	34.643420	7.370232	0.000000	-0.086834	0.976440	0.099983	-0.161260	1.298665	0.106232	-0.142660	2.374116	0.106232	-0.099243	2.374116	0.087485	-0.080634	1.991156	0.081236	-0.049617	1.512505	0.074987	-0.620250	11.045682	0.556076	0.000000	0.000000	9.750468	2.640735	-0.877345	18.059516	-33.129905	65.171222	57.060087	85.028120	4.324578	2.931563	19.907259	-18.500310	74.754615	43.254541	61.732607	-1.076473	-13.426459
2.183333	3.006733	-3.975712	93.895042	0.284891	0.763198	0.662236	4.068218	3.561259	7.278129	5.230087	0.091282	28.345618	-4.283493	0.000000	8.831074	-4.680214	5.106682	11.509100	0.200872	34.726068	7.812730	0.000000	-0.095406	0.997747	0.008094	-0.177178	1.327004	0.008600	-0.156742	2.425923	0.008600	-0.109039	2.425923	0.007082	-0.088594	2.034606	0.006576	-0.054515	1.545511	0.006070	-0.681475	11.286718	0.045015	0.000000	0.000000	9.763592	2.421102	-1.183453	17.884607	-33.142332	64.871454	57.117936	85.018316	4.550025	3.087601	19.588452	-18.367021	74.027788	43.281122	63.115363	-1.575842	-13.505645
2.200000	3.211150	-3.832879	94.482382	0.284488	0.763222	0.661707	3.490456	3.856533	8.558142	4.315838	0.075326	27.555615	-6.511892	0.000000	8.826830	-4.881108	5.321307	11.737066	0.204850	34.837253	8.368137	0.000000	-0.100761	1.013371	-0.078172	-0.187123	1.347783	-0.083058	-0.165540	2.463909	-0.083058	-0.115159	2.463909	-0.068401	-0.093566	2.066465	-0.063515	-0.057575	1.569711	-0.058629	-0.719723	11.463450	-0.434771	0.000000	0.000000	9.757094	2.182298	-1.491916	17.648030	-33.144451	64.545226	57.183226	85.160580	4.550802	3.183694	19.279919	-18.253659	73.333338	43.338589	64.552434	-2.147866	-13.625068
2.216667	3.384199	-3.713543	95.074485	0.284133	0.763209	0.661168	2.991184	4.107458	9.665700	3.533558	0.061672	26.852491	-8.541106	0.000000	8.853603	-5.056589	5.425138	11.955948	0.208671	34.966068	9.028026	0.000000	-0.100409	1.022070	-0.155195	-0.186470	1.359354	-0.164895	-0.164962	2.485062	-0.164895	-0.114758	2.485062	-0.135795	-0.093240	2.084206	-0.126096	-0.057374	1.583187	-0.116396	-0.717212	11.561865	-0.863147	0.000000	0.000000	9.748267	2.048700	-1.854852	17.357934	-33.140822	64.225564	57.255031	85.428727	4.386362	3.236793	19.013644	-18.160404	72.723973	43.420377	66.030136	-2.757379	-13.788535
2.233333	3.483292	-3.617424	95.628726	0.283924	0.763185	0.660661	2.603155	4.269785	10.541087	2.961142	0.051682	26.300488	-10.260164	0.000000	8.887445	-5.165147	5.417492	12.136242	0.211817	35.074994	9.716309	0.000000	-0.098110	1.016927	-0.216490	-0.182200	1.352513	-0.230020	-0.161185	2.472556	-0.230020	-0.112130	2.472556	-0.189429	-0.091105	2.073717	-0.175898	-0.056060	1.575220	-0.162367	-0.700789	11.503680	-1.204051	0.000000	0.000000	9.762406	2.062520	-2.380285	17.049325	-33.086907	63.963239	57.292278	85.652271	4.098935	3.261672	18.818899	-18.134682	72.213447	43.572305	67.370510	-3.319649	-13.938676
2.250000	3.546309	-3.549851	96.171001	0.283753	0.763158	0.660160	2.302426	4.376721	11.213944	2.528141	0.044124	25.830216	-11.729151	0.000000	8.957379	-5.244844	5.247681	12.316069	0.214956	35.191750	10.524925	0.000000	-0.091188	1.005216	-0.266458	-0.169345	1.336937	-0.283111	-0.149813	2.444082	-0.283111	-0.104219	2.444082	-0.233150	-0.084677	2.049836	-0.216497	-0.052105	1.557079	-0.199843	-0.651346	11.371201	-1.481957	0.000000	0.000000	9.767851	2.174621	-2.933464	16.695944	-33.016124	63.686991	57.300517	85.893720	3.816820	3.248356	18.676874	-18.111963	71.747878	43.727592	68.822618	-3.895717	-14.117863
2.266667	3.562274	-3.514311	96.659855	0.283693	0.763146	0.659721	2.133158	4.419083	11.530749	2.324079	0.040563	25.545105	-12.712485	0.000000	9.054073	-5.290586	4.874361	12.483943	0.217886	35.310698	11.442233	0.000000	-0.082370	0.984482	-0.297993	-0.152969	1.309361	-0.316617	-0.135325	2.393669	-0.316617	-0.094140	2.393669	-0.260744	-0.076489	2.007555	-0.242119	-0.047066	1.524962	-0.223495	-0.588359	11.136654	-1.657347	0.000000	0.000000	9.792230	2.416509	-3.606031	16.323203	-32.917959	63.405286	57.270120	85.987948	3.608885	3.234341	18.657527	-18.118255	71.472083	43.916623	69.922294	-4.377036	-14.255530
2.283333	3.538426	-3.506381	97.085623	0.283740	0.763160	0.659297	2.064792	4.410863	11.584542	2.283731	0.039859	25.385763	-13.307012	0.000000	9.158827	-5.299819	4.436750	12.611023	0.220104	35.423674	12.318989	0.000000	-0.071119	0.956479	-0.313809	-0.132074	1.272117	-0.333422	-0.116841	2.325583	-0.333422	-0.081281	2.325583	-0.274583	-0.066041	1.950452	-0.254970	-0.040637	1.481586	-0.235357	-0.507992	10.819880	-1.745312	0.000000	0.000000	9.802182	2.753596	-4.337161	15.973721	-32.801532	63.215111	57.194047	85.700345	3.462222	3.216956	18.766849	-18.163362	71.443340	44.137728	70.686050	-4.840667	-14.435021
2.300000	3.480262	-3.524169	97.428112	0.283911	0.763207	0.658882	2.101134	4.358803	11.317134	2.421166	0.042257	25.402673	-13.397792	0.000000	9.255645	-5.274868	3.990529	12.676865	0.221253	35.509795	13.069792	0.000000	-0.058179	0.921919	-0.311202	-0.108044	1.226152	-0.330652	-0.095582	2.241553	-0.330652	-0.066493	2.241553	-0.272302	-0.054025	1.879977	-0.252852	-0.033243	1.428052	-0.233402	-0.415567	10.428930	-1.730814	0.000000	0.000000	9.812555	3.147968	-5.146515	15.622174	-32.670727	63.022390	57.094601	85.372237	3.350578	3.201575	18.987679	-18.250249	71.585896	44.403218	71.006893	-5.152386	-14.543066
2.316667	3.389980	-3.539374	97.668728	0.284205	0.763323	0.658508	2.200413	4.279214	10.897613	2.700215	0.047128	25.537590	-13.192134	0.000000	9.321427	-5.229954	3.413847	12.700855	0.221672	35.606627	13.852603	0.000000	-0.049113	0.881685	-0.289845	-0.091208	1.172640	-0.307960	-0.080688	2.143728	-0.307960	-0.056131	2.143728	-0.253615	-0.045606	1.797931	-0.235499	-0.028063	1.365729	-0.217384	-0.350810	9.973792	-1.612032	0.000000	0.000000	9.834998	3.563151	-6.026836	15.294747	-32.530730	62.826473	56.983787	85.091634	3.262110	3.213802	19.346174	-18.382127	71.952681	44.710418	70.760999	-5.361112	-14.630414
2.333333	3.266492	-3.553436	97.804762	0.284681	0.763483	0.658148	2.338117	4.190421	10.654768	3.066871	0.053527	25.732324	-13.097720	0.000000	9.318123	-5.133535	3.154763	12.604094	0.219983	35.599005	14.100235	0.000000	-0.043712	0.834380	-0.253619	-0.081177	1.109726	-0.269471	-0.071814	2.028712	-0.269471	-0.049958	2.028712	-0.221917	-0.040591	1.701468	-0.206066	-0.024977	1.292455	-0.190215	-0.312230	9.438676	-1.410556	0.000000	0.000000	9.913227	3.969545	-6.973330	15.005933	-32.378907	62.670437	56.883182	84.885163	3.088819	3.202271	19.770959	-18.583422	72.302492	45.073723	70.201954	-5.299204	-14.569869
2.350000	3.135291	-3.573736	97.829848	0.285357	0.763661	0.657740	2.499053	4.130135	10.538905	3.460802	0.060402	25.965156	-13.024851	0.000000	9.264997	-5.041315	2.894670	12.420439	0.216778	35.594179	14.270729	0.000000	-0.038211	0.782852	-0.201610	-0.070962	1.041193	-0.214211	-0.062777	1.903426	-0.214211	-0.043672	1.903426	-0.176409	-0.035483	1.596391	-0.163808	-0.021834	1.212637	-0.151208	-0.272940	8.855775	-1.121296	0.000000	0.000000	10.017698	4.338138	-7.949049	14.740867	-32.231338	62.539492	56.810736	84.779249	2.876232	3.162479	20.276741	-18.851636	72.758224	45.483560	69.195907	-5.029457	-14.481837
2.366667	2.992496	-3.589595	97.768933	0.286127	0.763829	0.657409	2.700396	4.043627	10.358120	3.942776	0.068814	26.259940	-12.782806	0.000000	9.178293	-4.934307	2.767757	12.192992	0.212808	35.578668	14.220852	0.000000	-0.038447	0.727787	-0.142342	-0.071399	0.967956	-0.151238	-0.063164	1.769541	-0.151238	-0.043941	1.769541	-0.124549	-0.035702	1.484103	-0.115653	-0.021968	1.127342	-0.106756	-0.274620	8.232869	-0.791662	0.000000	0.000000	10.268838	4.615076	-8.915171	14.554474	-32.116507	62.461419	56.817184	84.746314	2.606396	3.132500	20.819989	-19.182810	73.099242	45.966114	68.038908	-4.522505	-14.264949
2.383333	2.818130	-3.608326	97.601067	0.287012	0.763972	0.657208	2.988241	3.895061	9.761522	4.593378	0.080170	26.772186	-11.850826	0.000000	9.054974	-4.785550	2.846244	11.908658	0.207845	35.509252	13.822103	0.000000	-0.045606	0.666650	-0.076126	-0.084695	0.886645	-0.080884	-0.074927	1.620894	-0.080884	-0.052123	1.620894	-0.066610	-0.042350	1.359433	-0.061852	-0.026059	1.032641	-0.057094	-0.325761	7.541282	-0.423388	0.000000	0.000000	10.723988	4.798766	-9.840804	14.497271	-32.024665	62.503742	56.902270	84.791323	2.243772	3.099724	21.392140	-19.592512	73.340921	46.536788	66.699732	-3.824348	-13.963396
2.400000	2.634074	-3.637429	97.366912	0.287961	0.764056	0.657087	3.340376	3.713098	9.036325	5.352155	0.093413	27.364792	-10.691655	0.000000	8.918254	-4.618693	3.112991	11.592007	0.202319	35.404992	13.156584	0.000000	-0.057272	0.602244	-0.016419	-0.106360	0.800985	-0.017445	-0.094092	1.464297	-0.017445	-0.065456	1.464297	-0.014367	-0.053183	1.228097	-0.013340	-0.032725	0.932877	-0.012314	-0.409089	6.812709	-0.091317	0.000000	0.000000	11.398730	4.868436	-10.642292	14.575657	-31.937906	62.653816	57.048393	84.927191	1.835045	3.045744	21.910985	-20.097382	73.278302	47.231690	65.596266	-2.953559	-13.523205
